<svg width="64" height="64" viewBox="0 0 64 64" fill="none" xmlns="http://www.w3.org/2000/svg">
<rect width="64" height="64" fill="#A5C926"/>
<mask id="mask0_1_194" style="mask-type:alpha" maskUnits="userSpaceOnUse" x="26" y="23" width="15" height="18">
<path d="M40.4615 31.0469L27.7514 23.168C27.4026 22.9554 26.9447 22.9408 26.5886 23.146C26.2253 23.3512 26 23.7396 26 24.1574V39.842C26 40.2597 26.2253 40.6482 26.5814 40.8534C26.7558 40.9487 26.9447 41 27.1409 41C27.3517 41 27.5552 40.9414 27.7368 40.8314L40.447 33.0185C40.7885 32.8132 40.9993 32.4321 40.9993 32.0363C41.0138 31.6332 40.8031 31.2521 40.4615 31.0469Z" fill="white"/>
</mask>
<g mask="url(#mask0_1_194)">
<path d="M40.4615 31.0469L27.7514 23.168C27.4026 22.9554 26.9447 22.9408 26.5886 23.146C26.2253 23.3512 26 23.7396 26 24.1574V39.842C26 40.2597 26.2253 40.6482 26.5814 40.8534C26.7558 40.9487 26.9447 41 27.1409 41C27.3517 41 27.5552 40.9414 27.7368 40.8314L40.447 33.0185C40.7885 32.8132 40.9993 32.4321 40.9993 32.0363C41.0138 31.6332 40.8031 31.2521 40.4615 31.0469Z" fill="white"/>
</g>
</svg>
