<svg width="20" height="20" viewBox="0 0 20 20" fill="none" xmlns="http://www.w3.org/2000/svg">
<mask id="mask0_1_274" style="mask-type:alpha" maskUnits="userSpaceOnUse" x="2" y="2" width="16" height="16">
<path d="M12.1609 17.5V12.0516H14.0085L14.2844 9.98009H12.1609V8.63855C12.1609 8.02696 12.3269 7.61266 13.2144 7.61266H14.375V5.70391C14.179 5.67925 13.4934 5.625 12.7122 5.625C11.0806 5.625 9.97799 6.61636 9.97799 8.4166V9.98009H8.125V12.0516H9.97755L9.97394 17.5H3.75C3.06641 17.5 2.5 16.9336 2.5 16.25V3.75C2.5 3.06641 3.06641 2.5 3.75 2.5H16.25C16.9336 2.5 17.5 3.06641 17.5 3.75V16.25C17.5 16.9336 16.9336 17.5 16.25 17.5H12.1609Z" fill="white"/>
</mask>
<g mask="url(#mask0_1_274)">
<path d="M12.1609 17.5V12.0516H14.0085L14.2844 9.98009H12.1609V8.63855C12.1609 8.02696 12.3269 7.61266 13.2144 7.61266H14.375V5.70391C14.179 5.67925 13.4934 5.625 12.7122 5.625C11.0806 5.625 9.97799 6.61636 9.97799 8.4166V9.98009H8.125V12.0516H9.97755L9.97394 17.5H3.75C3.06641 17.5 2.5 16.9336 2.5 16.25V3.75C2.5 3.06641 3.06641 2.5 3.75 2.5H16.25C16.9336 2.5 17.5 3.06641 17.5 3.75V16.25C17.5 16.9336 16.9336 17.5 16.25 17.5H12.1609Z" fill="white"/>
</g>
</svg>
