<svg width="20" height="20" viewBox="0 0 20 20" fill="none" xmlns="http://www.w3.org/2000/svg">
<path fill-rule="evenodd" clip-rule="evenodd" d="M2.5 6.82856C2.5 4.43796 4.43794 2.5 6.82856 2.5H13.1714C15.562 2.5 17.5 4.43794 17.5 6.82856V13.1714C17.5 15.562 15.5621 17.5 13.1714 17.5H6.82856C4.43796 17.5 2.5 15.5621 2.5 13.1714V6.82856ZM3.85776 6.95765V13.0423C3.85776 14.7569 5.24563 16.1422 6.95765 16.1422H13.0423C14.7569 16.1422 16.1422 14.7544 16.1422 13.0423V6.95765C16.1422 5.24307 14.7544 3.85776 13.0423 3.85776H6.95765C5.24307 3.85776 3.85776 5.24563 3.85776 6.95765ZM10 13.8147C7.89322 13.8147 6.18535 12.1068 6.18535 10C6.18535 7.89322 7.89322 6.18535 10 6.18535C12.1068 6.18535 13.8147 7.89322 13.8147 10C13.8147 12.1068 12.1068 13.8147 10 13.8147ZM10 12.4569C11.3569 12.4569 12.4569 11.3569 12.4569 10C12.4569 8.64309 11.3569 7.5431 10 7.5431C8.64309 7.5431 7.5431 8.64309 7.5431 10C7.5431 11.3569 8.64309 12.4569 10 12.4569ZM13.944 6.89655C13.4441 6.89655 13.0388 6.49129 13.0388 5.99138C13.0388 5.49147 13.4441 5.08621 13.944 5.08621C14.4439 5.08621 14.8491 5.49147 14.8491 5.99138C14.8491 6.49129 14.4439 6.89655 13.944 6.89655Z" fill="white"/>
</svg>
