<svg width="20" height="20" viewBox="0 0 20 20" fill="none" xmlns="http://www.w3.org/2000/svg">
<mask id="mask0_1_286" style="mask-type:alpha" maskUnits="userSpaceOnUse" x="2" y="2" width="16" height="16">
<path d="M10 2.5C5.85693 2.5 2.5 5.85693 2.5 10C2.5 13.1787 4.47754 15.8911 7.26807 16.9849C7.20215 16.3916 7.14111 15.481 7.29248 14.8315C7.4292 14.248 8.17139 11.1035 8.17139 11.1035C8.17139 11.1035 7.94922 10.6543 7.94922 9.99023C7.94922 8.94775 8.55225 8.16895 9.3042 8.16895C9.94385 8.16895 10.2539 8.6499 10.2539 9.22607C10.2539 9.87061 9.84375 10.8325 9.63135 11.7236C9.45557 12.4707 10.0073 13.0786 10.7422 13.0786C12.0752 13.0786 13.1006 11.6724 13.1006 9.64356C13.1006 7.84912 11.8115 6.59424 9.96826 6.59424C7.83447 6.59424 6.58203 8.19336 6.58203 9.84863C6.58203 10.4932 6.83106 11.1841 7.14111 11.5601C7.20215 11.6333 7.20947 11.6992 7.19238 11.7749C7.13379 12.0117 7.00928 12.522 6.98486 12.6245C6.95068 12.7637 6.875 12.793 6.7334 12.7246C5.7959 12.29 5.20996 10.9204 5.20996 9.81934C5.20996 7.45361 6.92871 5.28076 10.166 5.28076C12.7686 5.28076 14.79 7.13379 14.79 9.61426C14.79 12.1973 13.1592 14.2773 10.8984 14.2773C10.1392 14.2773 9.42383 13.8843 9.17969 13.418C9.17969 13.418 8.80371 14.8486 8.71094 15.2002C8.54248 15.8521 8.08594 16.6675 7.77832 17.1655C8.48145 17.3828 9.22607 17.5 10 17.5C14.1431 17.5 17.5 14.1431 17.5 10C17.5 5.85693 14.1431 2.5 10 2.5Z" fill="white"/>
</mask>
<g mask="url(#mask0_1_286)">
<path d="M10 2.5C5.85693 2.5 2.5 5.85693 2.5 10C2.5 13.1787 4.47754 15.8911 7.26807 16.9849C7.20215 16.3916 7.14111 15.481 7.29248 14.8315C7.4292 14.248 8.17139 11.1035 8.17139 11.1035C8.17139 11.1035 7.94922 10.6543 7.94922 9.99023C7.94922 8.94775 8.55225 8.16895 9.3042 8.16895C9.94385 8.16895 10.2539 8.6499 10.2539 9.22607C10.2539 9.87061 9.84375 10.8325 9.63135 11.7236C9.45557 12.4707 10.0073 13.0786 10.7422 13.0786C12.0752 13.0786 13.1006 11.6724 13.1006 9.64356C13.1006 7.84912 11.8115 6.59424 9.96826 6.59424C7.83447 6.59424 6.58203 8.19336 6.58203 9.84863C6.58203 10.4932 6.83106 11.1841 7.14111 11.5601C7.20215 11.6333 7.20947 11.6992 7.19238 11.7749C7.13379 12.0117 7.00928 12.522 6.98486 12.6245C6.95068 12.7637 6.875 12.793 6.7334 12.7246C5.7959 12.29 5.20996 10.9204 5.20996 9.81934C5.20996 7.45361 6.92871 5.28076 10.166 5.28076C12.7686 5.28076 14.79 7.13379 14.79 9.61426C14.79 12.1973 13.1592 14.2773 10.8984 14.2773C10.1392 14.2773 9.42383 13.8843 9.17969 13.418C9.17969 13.418 8.80371 14.8486 8.71094 15.2002C8.54248 15.8521 8.08594 16.6675 7.77832 17.1655C8.48145 17.3828 9.22607 17.5 10 17.5C14.1431 17.5 17.5 14.1431 17.5 10C17.5 5.85693 14.1431 2.5 10 2.5Z" fill="white"/>
</g>
</svg>
