<svg width="32" height="32" viewBox="0 0 32 32" fill="none" xmlns="http://www.w3.org/2000/svg">
<path fill-rule="evenodd" clip-rule="evenodd" d="M23.5 11.1956C22.9481 11.4394 22.355 11.6056 21.7325 11.6788C22.3675 11.2981 22.8556 10.695 23.085 9.97687C22.4919 10.3287 21.8325 10.585 21.1319 10.7244C20.57 10.1262 19.7694 9.75 18.8856 9.75C17.1863 9.75 15.8069 11.1294 15.8069 12.8287C15.8069 13.0706 15.8337 13.305 15.8875 13.5294C13.3294 13.4025 11.0612 12.1769 9.545 10.3137C9.27875 10.7681 9.1275 11.2981 9.1275 11.8619C9.1275 12.9287 9.66938 13.8713 10.4969 14.4231C9.99188 14.4056 9.51813 14.2694 9.10313 14.0369C9.10313 14.0519 9.10313 14.0637 9.10313 14.0763C9.10313 15.5681 10.1625 16.8131 11.5712 17.0938C11.3125 17.1644 11.0412 17.2038 10.7606 17.2038C10.5631 17.2038 10.3675 17.1844 10.1819 17.1475C10.5725 18.3706 11.7106 19.2594 13.0556 19.2862C12.0031 20.1112 10.675 20.6019 9.235 20.6019C8.98563 20.6019 8.74187 20.5875 8.5 20.5581C9.8625 21.4325 11.4787 21.9425 13.2169 21.9425C18.8781 21.9425 21.9744 17.2525 21.9744 13.185C21.9744 13.0531 21.9694 12.9188 21.9644 12.7869C22.565 12.3525 23.0875 11.8106 23.5 11.1956Z" fill="white"/>
</svg>
