<svg width="20" height="20" viewBox="0 0 20 20" fill="none" xmlns="http://www.w3.org/2000/svg">
<mask id="mask0_1_293" style="mask-type:alpha" maskUnits="userSpaceOnUse" x="1" y="3" width="18" height="14">
<path d="M10 3.75C12.3538 3.75 14.4338 3.99438 15.7031 4.18C16.7531 4.33375 17.6 5.12437 17.7931 6.17188C17.9587 7.06562 18.125 8.37187 18.125 10C18.125 11.6281 17.9562 12.9344 17.7931 13.8281C17.6 14.8756 16.7531 15.6687 15.7031 15.82C14.4288 16.0056 12.3413 16.25 10 16.25C7.65875 16.25 5.57125 16.0056 4.29688 15.82C3.24688 15.6687 2.4 14.8756 2.20687 13.8281C2.04375 12.9369 1.875 11.6331 1.875 10C1.875 8.36688 2.04375 7.06312 2.20687 6.17188C2.4 5.12437 3.24688 4.33375 4.29688 4.18C5.56625 3.99438 7.64625 3.75 10 3.75ZM8.125 6.42563V13.5744L9.0625 13.0469L13.4375 10.5469L14.375 10L13.4375 9.45312L9.0625 6.95312L8.125 6.42563Z" fill="white"/>
</mask>
<g mask="url(#mask0_1_293)">
<path d="M10 3.75C12.3538 3.75 14.4338 3.99438 15.7031 4.18C16.7531 4.33375 17.6 5.12437 17.7931 6.17188C17.9587 7.06562 18.125 8.37187 18.125 10C18.125 11.6281 17.9562 12.9344 17.7931 13.8281C17.6 14.8756 16.7531 15.6687 15.7031 15.82C14.4288 16.0056 12.3413 16.25 10 16.25C7.65875 16.25 5.57125 16.0056 4.29688 15.82C3.24688 15.6687 2.4 14.8756 2.20687 13.8281C2.04375 12.9369 1.875 11.6331 1.875 10C1.875 8.36688 2.04375 7.06312 2.20687 6.17188C2.4 5.12437 3.24688 4.33375 4.29688 4.18C5.56625 3.99438 7.64625 3.75 10 3.75ZM8.125 6.42563V13.5744L9.0625 13.0469L13.4375 10.5469L14.375 10L13.4375 9.45312L9.0625 6.95312L8.125 6.42563Z" fill="white"/>
</g>
</svg>
